<svg width="18" height="18" viewBox="0 0 18 18" fill="none" xmlns="http://www.w3.org/2000/svg">
<path d="M10.5938 9.75H7.59375V11.25H10.5938V9.75Z" fill="black"/>
<path fill-rule="evenodd" clip-rule="evenodd" d="M6.09375 9.75C6.49157 9.75 6.87311 9.59196 7.15441 9.31066C7.43571 9.02936 7.59375 8.64782 7.59375 8.25C7.59375 7.85218 7.43571 7.47064 7.15441 7.18934C6.87311 6.90804 6.49157 6.75 6.09375 6.75C5.69593 6.75 5.31439 6.90804 5.03309 7.18934C4.75179 7.47064 4.59375 7.85218 4.59375 8.25C4.59375 8.64782 4.75179 9.02936 5.03309 9.31066C5.31439 9.59196 5.69593 9.75 6.09375 9.75ZM6.09375 8.625C6.19321 8.625 6.28859 8.58549 6.35892 8.51517C6.42924 8.44484 6.46875 8.34946 6.46875 8.25C6.46875 8.15054 6.42924 8.05516 6.35892 7.98483C6.28859 7.91451 6.19321 7.875 6.09375 7.875C5.99429 7.875 5.89891 7.91451 5.82859 7.98483C5.75826 8.05516 5.71875 8.15054 5.71875 8.25C5.71875 8.34946 5.75826 8.44484 5.82859 8.51517C5.89891 8.58549 5.99429 8.625 6.09375 8.625Z" fill="black"/>
<path fill-rule="evenodd" clip-rule="evenodd" d="M13.5938 8.25C13.5938 8.64782 13.4357 9.02936 13.1544 9.31066C12.8731 9.59196 12.4916 9.75 12.0938 9.75C11.6959 9.75 11.3144 9.59196 11.0331 9.31066C10.7518 9.02936 10.5938 8.64782 10.5938 8.25C10.5938 7.85218 10.7518 7.47064 11.0331 7.18934C11.3144 6.90804 11.6959 6.75 12.0938 6.75C12.4916 6.75 12.8731 6.90804 13.1544 7.18934C13.4357 7.47064 13.5938 7.85218 13.5938 8.25ZM12.4688 8.25C12.4688 8.34946 12.4292 8.44484 12.3589 8.51517C12.2886 8.58549 12.1932 8.625 12.0938 8.625C11.9943 8.625 11.8989 8.58549 11.8286 8.51517C11.7583 8.44484 11.7188 8.34946 11.7188 8.25C11.7188 8.15054 11.7583 8.05516 11.8286 7.98483C11.8989 7.91451 11.9943 7.875 12.0938 7.875C12.1932 7.875 12.2886 7.91451 12.3589 7.98483C12.4292 8.05516 12.4688 8.15054 12.4688 8.25Z" fill="black"/>
<path fill-rule="evenodd" clip-rule="evenodd" d="M2.06174 10.9995C2.43421 11.7505 3.00904 12.3825 3.72144 12.8243C4.43383 13.2661 5.25547 13.5001 6.09374 13.5H12.0937C13.9237 13.5 15.4987 12.408 16.2022 10.8398C16.4972 10.6321 16.7379 10.3566 16.9039 10.0364C17.07 9.71617 17.1565 9.3607 17.1562 9C17.1562 8.24025 16.779 7.5675 16.2022 7.161C15.8472 6.36832 15.2704 5.6953 14.5414 5.22313C13.8124 4.75096 12.9623 4.49982 12.0937 4.5H6.09374C5.2556 4.50002 4.43412 4.73412 3.72187 5.17592C3.00962 5.61771 2.43491 6.24964 2.06249 7.0005C1.69548 7.18988 1.38767 7.47662 1.17279 7.8293C0.957906 8.18199 0.844238 8.58701 0.844238 9C0.844238 9.41299 0.957906 9.81801 1.17279 10.1707C1.38767 10.5234 1.69473 10.8101 2.06174 10.9995ZM6.09374 6H12.0937C13.1317 6 14.046 6.5265 14.5852 7.3275C14.7922 7.845 14.9062 8.409 14.9062 9C14.9062 9.591 14.7922 10.155 14.5852 10.6725C14.311 11.0814 13.9401 11.4165 13.5056 11.648C13.071 11.8795 12.5861 12.0004 12.0937 12H6.09374C5.29809 12 4.53503 11.6839 3.97242 11.1213C3.40981 10.5587 3.09374 9.79565 3.09374 9C3.09374 8.20435 3.40981 7.44129 3.97242 6.87868C4.53503 6.31607 5.29809 6 6.09374 6Z" fill="black"/>
</svg>
