<svg width="30" height="30" viewBox="0 0 30 30" fill="none" xmlns="http://www.w3.org/2000/svg">
<g id="calendar" clip-path="url(#clip0_23_236)">
<path id="Vector" d="M2.30769 27.8571H7.5V23.0357H2.30769V27.8571ZM8.65385 27.8571H14.4231V23.0357H8.65385V27.8571ZM2.30769 21.9643H7.5V16.6071H2.30769V21.9643ZM8.65385 21.9643H14.4231V16.6071H8.65385V21.9643ZM2.30769 15.5357H7.5V10.7143H2.30769V15.5357ZM15.5769 27.8571H21.3462V23.0357H15.5769V27.8571ZM8.65385 15.5357H14.4231V10.7143H8.65385V15.5357ZM22.5 27.8571H27.6923V23.0357H22.5V27.8571ZM15.5769 21.9643H21.3462V16.6071H15.5769V21.9643ZM9.23077 7.5V2.67857C9.23077 2.53348 9.17368 2.40792 9.0595 2.3019C8.94531 2.19587 8.8101 2.14286 8.65385 2.14286H7.5C7.34375 2.14286 7.20853 2.19587 7.09435 2.3019C6.98017 2.40792 6.92308 2.53348 6.92308 2.67857V7.5C6.92308 7.64509 6.98017 7.77065 7.09435 7.87667C7.20853 7.9827 7.34375 8.03571 7.5 8.03571H8.65385C8.8101 8.03571 8.94531 7.9827 9.0595 7.87667C9.17368 7.77065 9.23077 7.64509 9.23077 7.5ZM22.5 21.9643H27.6923V16.6071H22.5V21.9643ZM15.5769 15.5357H21.3462V10.7143H15.5769V15.5357ZM22.5 15.5357H27.6923V10.7143H22.5V15.5357ZM23.0769 7.5V2.67857C23.0769 2.53348 23.0198 2.40792 22.9056 2.3019C22.7915 2.19587 22.6562 2.14286 22.5 2.14286H21.3462C21.1899 2.14286 21.0547 2.19587 20.9405 2.3019C20.8263 2.40792 20.7692 2.53348 20.7692 2.67857V7.5C20.7692 7.64509 20.8263 7.77065 20.9405 7.87667C21.0547 7.9827 21.1899 8.03571 21.3462 8.03571H22.5C22.6562 8.03571 22.7915 7.9827 22.9056 7.87667C23.0198 7.77065 23.0769 7.64509 23.0769 7.5ZM30 6.42857V27.8571C30 28.4375 29.7716 28.9397 29.3149 29.3638C28.8582 29.7879 28.3173 30 27.6923 30H2.30769C1.68269 30 1.14183 29.7879 0.685096 29.3638C0.228365 28.9397 0 28.4375 0 27.8571V6.42857C0 5.84821 0.228365 5.34598 0.685096 4.92187C1.14183 4.49777 1.68269 4.28571 2.30769 4.28571H4.61538V2.67857C4.61538 1.94196 4.89784 1.31138 5.46274 0.78683C6.02764 0.262277 6.70673 0 7.5 0H8.65385C9.44712 0 10.1262 0.262277 10.6911 0.78683C11.256 1.31138 11.5385 1.94196 11.5385 2.67857V4.28571H18.4615V2.67857C18.4615 1.94196 18.744 1.31138 19.3089 0.78683C19.8738 0.262277 20.5529 0 21.3462 0H22.5C23.2933 0 23.9724 0.262277 24.5373 0.78683C25.1022 1.31138 25.3846 1.94196 25.3846 2.67857V4.28571H27.6923C28.3173 4.28571 28.8582 4.49777 29.3149 4.92187C29.7716 5.34598 30 5.84821 30 6.42857Z" fill="#256D85"/>
</g>
<defs>
<clipPath id="clip0_23_236">
<rect width="30" height="30" fill="white"/>
</clipPath>
</defs>
</svg>
