<svg width="24" height="24" viewBox="0 0 24 24" fill="none" xmlns="http://www.w3.org/2000/svg">
<g id="vuesax/linear/notification">
<g id="vuesax/linear/notification_2">
<g id="notification">
<path id="Vector" d="M12.0201 2.91016C8.71009 2.91016 6.02009 5.60016 6.02009 8.91016V11.8002C6.02009 12.4102 5.76009 13.3402 5.45009 13.8602L4.30009 15.7702C3.59009 16.9502 4.08009 18.2602 5.38009 18.7002C9.69009 20.1402 14.3401 20.1402 18.6501 18.7002C19.8601 18.3002 20.3901 16.8702 19.7301 15.7702L18.5801 13.8602C18.2801 13.3402 18.0201 12.4102 18.0201 11.8002V8.91016C18.0201 5.61016 15.3201 2.91016 12.0201 2.91016Z" stroke="#4D6B8C" stroke-width="1.5" stroke-miterlimit="10" stroke-linecap="round"/>
<g id="Group 22">
<circle id="Ellipse 23" cx="5" cy="5.00012" r="5" fill="#E9F0F3"/>
<circle id="Ellipse 22" cx="5" cy="5.00012" r="3" fill="#256D85"/>
</g>
<path id="Vector_2" d="M13.8699 3.20006C13.5599 3.11006 13.2399 3.04006 12.9099 3.00006C11.9499 2.88006 11.0299 2.95006 10.1699 3.20006C10.4599 2.46006 11.1799 1.94006 12.0199 1.94006C12.8599 1.94006 13.5799 2.46006 13.8699 3.20006Z" stroke="#4D6B8C" stroke-width="1.5" stroke-miterlimit="10" stroke-linecap="round" stroke-linejoin="round"/>
<path id="Vector_3" d="M15.02 19.0602C15.02 20.7102 13.67 22.0602 12.02 22.0602C11.2 22.0602 10.44 21.7202 9.90002 21.1802C9.36002 20.6402 9.02002 19.8802 9.02002 19.0602" stroke="#4D6B8C" stroke-width="1.5" stroke-miterlimit="10"/>
</g>
</g>
</g>
</svg>
