<svg width="32" height="32" viewBox="0 0 32 32" fill="none" xmlns="http://www.w3.org/2000/svg">
<path d="M28.4444 5.33337H3.55555C3.08405 5.33337 2.63187 5.52067 2.29847 5.85407C1.96507 6.18747 1.77777 6.63966 1.77777 7.11115V24.8889C1.77777 25.3604 1.96507 25.8126 2.29847 26.146C2.63187 26.4794 3.08405 26.6667 3.55555 26.6667H28.4444C28.9159 26.6667 29.3681 26.4794 29.7015 26.146C30.0349 25.8126 30.2222 25.3604 30.2222 24.8889V7.11115C30.2222 6.63966 30.0349 6.18747 29.7015 5.85407C29.3681 5.52067 28.9159 5.33337 28.4444 5.33337ZM28.4444 24.8889H3.55555V7.11115H28.4444V24.8889Z" fill="white"/>
<path d="M7.99997 12.4444H24C24.2357 12.4444 24.4618 12.3508 24.6285 12.1841C24.7952 12.0174 24.8889 11.7913 24.8889 11.5555C24.8889 11.3198 24.7952 11.0937 24.6285 10.927C24.4618 10.7603 24.2357 10.6666 24 10.6666H7.99997C7.76422 10.6666 7.53813 10.7603 7.37143 10.927C7.20473 11.0937 7.11108 11.3198 7.11108 11.5555C7.11108 11.7913 7.20473 12.0174 7.37143 12.1841C7.53813 12.3508 7.76422 12.4444 7.99997 12.4444Z" fill="white"/>
<path d="M7.99997 15.9999H24C24.2357 15.9999 24.4618 15.9063 24.6285 15.7396C24.7952 15.5729 24.8889 15.3468 24.8889 15.1111C24.8889 14.8753 24.7952 14.6492 24.6285 14.4825C24.4618 14.3158 24.2357 14.2222 24 14.2222H7.99997C7.76422 14.2222 7.53813 14.3158 7.37143 14.4825C7.20473 14.6492 7.11108 14.8753 7.11108 15.1111C7.11108 15.3468 7.20473 15.5729 7.37143 15.7396C7.53813 15.9063 7.76422 15.9999 7.99997 15.9999Z" fill="white"/>
<path d="M7.99997 19.5556H16.8889C17.1246 19.5556 17.3507 19.462 17.5174 19.2953C17.6841 19.1286 17.7778 18.9025 17.7778 18.6667C17.7778 18.431 17.6841 18.2049 17.5174 18.0382C17.3507 17.8715 17.1246 17.7778 16.8889 17.7778H7.99997C7.76422 17.7778 7.53813 17.8715 7.37143 18.0382C7.20473 18.2049 7.11108 18.431 7.11108 18.6667C7.11108 18.9025 7.20473 19.1286 7.37143 19.2953C7.53813 19.462 7.76422 19.5556 7.99997 19.5556Z" fill="white"/>
</svg>
