<svg width="26" height="27" viewBox="0 0 26 27" fill="none" xmlns="http://www.w3.org/2000/svg">
<g id="vuesax/linear/document-text">
<g id="Group 1000002803">
<path id="Vector" d="M21.3885 26.1869H19.6476V23.5755H16.1656C15.0116 23.5743 13.9052 23.1154 13.0892 22.2994C12.2732 21.4834 11.8143 20.377 11.8131 19.223V18.1088L9.79709 17.4376C9.67347 17.3964 9.56069 17.3279 9.46707 17.2372C9.37345 17.1466 9.30138 17.0361 9.25618 16.9138C9.21098 16.7916 9.1938 16.6608 9.20592 16.531C9.21803 16.4013 9.25912 16.2759 9.32616 16.1641L11.8131 12.018V9.64763C11.8155 7.57053 12.6416 5.57916 14.1103 4.11042C15.5791 2.64168 17.5704 1.81554 19.6476 1.81323H24V3.55421H19.6476C18.032 3.55605 16.4832 4.19863 15.3409 5.34097C14.1985 6.48331 13.556 8.03212 13.5541 9.64763V12.2591C13.5539 12.4168 13.5109 12.5714 13.4296 12.7065L11.3779 16.1293L12.9596 16.6559C13.1328 16.7138 13.2835 16.8248 13.3902 16.973C13.4969 17.1213 13.5542 17.2994 13.5541 17.482V19.223C13.5548 19.9154 13.8302 20.5792 14.3198 21.0688C14.8094 21.5584 15.4732 21.8338 16.1656 21.8345H20.518C20.7489 21.8345 20.9703 21.9262 21.1336 22.0894C21.2968 22.2527 21.3885 22.4741 21.3885 22.705V26.1869Z" fill="#7990A9"/>
<path id="Vector_2" d="M15.2952 10.5181H18.7771V12.259H15.2952V10.5181Z" fill="#7990A9"/>
<path id="Vector_3" d="M6.8793 22.0234C6.24042 21.4518 5.72933 20.7519 5.37942 19.9694C5.0295 19.1868 4.84863 18.3392 4.84863 17.482C4.84863 16.6248 5.0295 15.7772 5.37942 14.9947C5.72933 14.2121 6.24042 13.5122 6.8793 12.9407L8.04053 14.2377C7.58417 14.646 7.21909 15.1459 6.96914 15.7049C6.71918 16.2638 6.58999 16.8693 6.58999 17.4816C6.58999 18.0939 6.71918 18.6993 6.96914 19.2583C7.21909 19.8173 7.58417 20.3172 8.04053 20.7255L6.8793 22.0234Z" fill="#7990A9"/>
<path id="Vector_4" d="M4.32704 25.1424C3.13813 24.2503 2.17319 23.0936 1.50861 21.7641C0.84403 20.4345 0.498047 18.9685 0.498047 17.4821C0.498047 15.9957 0.84403 14.5297 1.50861 13.2001C2.17319 11.8705 3.13813 10.7139 4.32704 9.82178L5.37163 11.2146C4.39846 11.9443 3.60858 12.8906 3.06455 13.9785C2.52052 15.0665 2.23728 16.2661 2.23728 17.4825C2.23728 18.6989 2.52052 19.8986 3.06455 20.9865C3.60858 22.0744 4.39846 23.0207 5.37163 23.7505L4.32704 25.1424Z" fill="#7990A9"/>
</g>
</g>
</svg>
