<svg width="38" height="38" viewBox="0 0 38 38" fill="none" xmlns="http://www.w3.org/2000/svg">
<path d="M18.9148 30L21.3856 27.3636L18.148 23.9091L15.6771 26.5455V27.8182H17.722V30H18.9148ZM28.287 13.6364C28.0598 13.3939 27.8255 13.4015 27.5841 13.6591L20.1289 21.6136C19.8875 21.8712 19.8804 22.1212 20.1076 22.3636C20.3348 22.6061 20.5691 22.5985 20.8105 22.3409L28.2657 14.3864C28.5071 14.1288 28.5142 13.8788 28.287 13.6364ZM29.991 27.1364V31.4545C29.991 33.2576 29.3911 34.7992 28.1911 36.0795C26.9912 37.3598 25.5463 38 23.8565 38H6.13453C4.44469 38 2.99981 37.3598 1.79989 36.0795C0.599963 34.7992 0 33.2576 0 31.4545V12.5455C0 10.7424 0.599963 9.20076 1.79989 7.92045C2.99981 6.64015 4.44469 6 6.13453 6H23.8565C24.7511 6 25.5818 6.18939 26.3487 6.56818C26.5617 6.67424 26.6895 6.84848 26.7321 7.09091C26.7747 7.34848 26.7108 7.56818 26.5404 7.75L25.4966 8.86364C25.2978 9.07576 25.0706 9.13636 24.815 9.04545C24.4884 8.95455 24.1689 8.90909 23.8565 8.90909H6.13453C5.19731 8.90909 4.39499 9.26515 3.72758 9.97727C3.06016 10.6894 2.72646 11.5455 2.72646 12.5455V31.4545C2.72646 32.4545 3.06016 33.3106 3.72758 34.0227C4.39499 34.7348 5.19731 35.0909 6.13453 35.0909H23.8565C24.7937 35.0909 25.596 34.7348 26.2635 34.0227C26.9309 33.3106 27.2646 32.4545 27.2646 31.4545V28.5909C27.2646 28.3939 27.3285 28.2273 27.4563 28.0909L28.8195 26.6364C29.0325 26.4091 29.281 26.3561 29.565 26.4773C29.849 26.5985 29.991 26.8182 29.991 27.1364ZM27.9462 10.3636L34.0807 16.9091L19.7668 32.1818H13.6323V25.6364L27.9462 10.3636ZM37.4036 13.3636L35.4439 15.4545L29.3094 8.90909L31.2691 6.81818C31.6667 6.39394 32.1495 6.18182 32.7175 6.18182C33.2855 6.18182 33.7683 6.39394 34.1659 6.81818L37.4036 10.2727C37.8012 10.697 38 11.2121 38 11.8182C38 12.4242 37.8012 12.9394 37.4036 13.3636Z" fill="#256D85"/>
</svg>
