<svg width="19" height="24" viewBox="0 0 19 24" fill="none" xmlns="http://www.w3.org/2000/svg">
<g id="microphone" clip-path="url(#clip0_6_2456)">
<path id="Vector" d="M18.2308 10.057V11.8202C18.2308 13.8497 17.4551 15.6151 15.9039 17.1166C14.3527 18.6181 12.436 19.479 10.1538 19.6994V21.5177H14.1923C14.4657 21.5177 14.7024 21.6049 14.9022 21.7794C15.102 21.9539 15.2019 22.1605 15.2019 22.3993C15.2019 22.638 15.102 22.8446 14.9022 23.0191C14.7024 23.1936 14.4657 23.2808 14.1923 23.2808H4.09614C3.8227 23.2808 3.58607 23.1936 3.38625 23.0191C3.18643 22.8446 3.08652 22.638 3.08652 22.3993C3.08652 22.1605 3.18643 21.9539 3.38625 21.7794C3.58607 21.6049 3.8227 21.5177 4.09614 21.5177H8.1346V19.6994C5.85245 19.479 3.93576 18.6181 2.38453 17.1166C0.833294 15.6151 0.0576782 13.8497 0.0576782 11.8202V10.057C0.0576782 9.81823 0.157588 9.6116 0.357408 9.43712C0.557228 9.26264 0.793856 9.1754 1.06729 9.1754C1.34073 9.1754 1.57736 9.26264 1.77718 9.43712C1.977 9.6116 2.07691 9.81823 2.07691 10.057V11.8202C2.07691 13.5191 2.76839 14.9723 4.15135 16.1799C5.53432 17.3875 7.1986 17.9913 9.14422 17.9913C11.0898 17.9913 12.7541 17.3875 14.1371 16.1799C15.52 14.9723 16.2115 13.5191 16.2115 11.8202V10.057C16.2115 9.81823 16.3114 9.6116 16.5113 9.43712C16.7111 9.26264 16.9477 9.1754 17.2211 9.1754C17.4946 9.1754 17.7312 9.26264 17.931 9.43712C18.1308 9.6116 18.2308 9.81823 18.2308 10.057ZM14.1923 4.76745V11.8202C14.1923 13.0324 13.698 14.0701 12.7094 14.9333C11.7208 15.7965 10.5324 16.2281 9.14422 16.2281C7.756 16.2281 6.56759 15.7965 5.57901 14.9333C4.59043 14.0701 4.09614 13.0324 4.09614 11.8202V4.76745C4.09614 3.55526 4.59043 2.51756 5.57901 1.65433C6.56759 0.791109 7.756 0.359497 9.14422 0.359497C10.5324 0.359497 11.7208 0.791109 12.7094 1.65433C13.698 2.51756 14.1923 3.55526 14.1923 4.76745Z" fill="#256D85"/>
</g>
<defs>
<clipPath id="clip0_6_2456">
<rect width="18.1731" height="22.9213" fill="white" transform="translate(0.0576782 0.359497)"/>
</clipPath>
</defs>
</svg>
