<svg width="24" height="24" viewBox="0 0 24 24" fill="none" xmlns="http://www.w3.org/2000/svg">
<g id="vuesax/outline/setting-2">
<g id="vuesax/outline/setting-2_2">
<g id="setting-2">
<path id="Vector" d="M12 15.7501C9.93 15.7501 8.25 14.0701 8.25 12.0001C8.25 9.93012 9.93 8.25012 12 8.25012C14.07 8.25012 15.75 9.93012 15.75 12.0001C15.75 14.0701 14.07 15.7501 12 15.7501ZM12 9.75012C10.76 9.75012 9.75 10.7601 9.75 12.0001C9.75 13.2401 10.76 14.2501 12 14.2501C13.24 14.2501 14.25 13.2401 14.25 12.0001C14.25 10.7601 13.24 9.75012 12 9.75012Z" fill="#4D6B8C"/>
<path id="Vector_2" d="M15.21 22.1902C15 22.1902 14.79 22.1602 14.58 22.1102C13.96 21.9402 13.44 21.5502 13.11 21.0002L12.99 20.8002C12.4 19.7802 11.59 19.7802 11 20.8002L10.89 20.9902C10.56 21.5502 10.04 21.9502 9.42 22.1102C8.79 22.2802 8.14 22.1902 7.59 21.8602L5.87 20.8702C5.26 20.5202 4.82 19.9502 4.63 19.2602C4.45 18.5702 4.54 17.8602 4.89 17.2502C5.18 16.7402 5.26 16.2802 5.09 15.9902C4.92 15.7002 4.49 15.5302 3.9 15.5302C2.44 15.5302 1.25 14.3402 1.25 12.8802V11.1202C1.25 9.66016 2.44 8.47016 3.9 8.47016C4.49 8.47016 4.92 8.30016 5.09 8.01016C5.26 7.72016 5.19 7.26016 4.89 6.75016C4.54 6.14016 4.45 5.42016 4.63 4.74016C4.81 4.05016 5.25 3.48016 5.87 3.13016L7.6 2.14016C8.73 1.47016 10.22 1.86016 10.9 3.01016L11.02 3.21016C11.61 4.23016 12.42 4.23016 13.01 3.21016L13.12 3.02016C13.8 1.86016 15.29 1.47016 16.43 2.15016L18.15 3.14016C18.76 3.49016 19.2 4.06016 19.39 4.75016C19.57 5.44016 19.48 6.15016 19.13 6.76016C18.84 7.27016 18.76 7.73016 18.93 8.02016C19.1 8.31016 19.53 8.48016 20.12 8.48016C21.58 8.48016 22.77 9.67016 22.77 11.1302V12.8902C22.77 14.3502 21.58 15.5402 20.12 15.5402C19.53 15.5402 19.1 15.7102 18.93 16.0002C18.76 16.2902 18.83 16.7502 19.13 17.2602C19.48 17.8702 19.58 18.5902 19.39 19.2702C19.21 19.9602 18.77 20.5302 18.15 20.8802L16.42 21.8702C16.04 22.0802 15.63 22.1902 15.21 22.1902ZM12 18.4902C12.89 18.4902 13.72 19.0502 14.29 20.0402L14.4 20.2302C14.52 20.4402 14.72 20.5902 14.96 20.6502C15.2 20.7102 15.44 20.6802 15.64 20.5602L17.37 19.5602C17.63 19.4102 17.83 19.1602 17.91 18.8602C17.99 18.5602 17.95 18.2502 17.8 17.9902C17.23 17.0102 17.16 16.0002 17.6 15.2302C18.04 14.4602 18.95 14.0202 20.09 14.0202C20.73 14.0202 21.24 13.5102 21.24 12.8702V11.1102C21.24 10.4802 20.73 9.96016 20.09 9.96016C18.95 9.96016 18.04 9.52016 17.6 8.75016C17.16 7.98016 17.23 6.97016 17.8 5.99016C17.95 5.73016 17.99 5.42016 17.91 5.12016C17.83 4.82016 17.64 4.58016 17.38 4.42016L15.65 3.43016C15.22 3.17016 14.65 3.32016 14.39 3.76016L14.28 3.95016C13.71 4.94016 12.88 5.50016 11.99 5.50016C11.1 5.50016 10.27 4.94016 9.7 3.95016L9.59 3.75016C9.34 3.33016 8.78 3.18016 8.35 3.43016L6.62 4.43016C6.36 4.58016 6.16 4.83016 6.08 5.13016C6 5.43016 6.04 5.74016 6.19 6.00016C6.76 6.98016 6.83 7.99016 6.39 8.76016C5.95 9.53016 5.04 9.97016 3.9 9.97016C3.26 9.97016 2.75 10.4802 2.75 11.1202V12.8802C2.75 13.5102 3.26 14.0302 3.9 14.0302C5.04 14.0302 5.95 14.4702 6.39 15.2402C6.83 16.0102 6.76 17.0202 6.19 18.0002C6.04 18.2602 6 18.5702 6.08 18.8702C6.16 19.1702 6.35 19.4102 6.61 19.5702L8.34 20.5602C8.55 20.6902 8.8 20.7202 9.03 20.6602C9.27 20.6002 9.47 20.4402 9.6 20.2302L9.71 20.0402C10.28 19.0602 11.11 18.4902 12 18.4902Z" fill="#4D6B8C"/>
</g>
</g>
</g>
</svg>
