<svg width="24" height="24" viewBox="0 0 24 24" fill="none" xmlns="http://www.w3.org/2000/svg">
<path d="M18.75 19H10C9.64844 19 9.35221 18.8796 9.11133 18.6387C8.87044 18.3978 8.75 18.1016 8.75 17.75C8.75 17.3984 8.87044 17.1022 9.11133 16.8613C9.35221 16.6204 9.64844 16.5 10 16.5H18.75C19.1016 16.5 19.3978 16.6204 19.6387 16.8613C19.8796 17.1022 20 17.3984 20 17.75C20 18.1016 19.8796 18.3978 19.6387 18.6387C19.3978 18.8796 19.1016 19 18.75 19ZM18.75 11.5H10C9.64844 11.5 9.35221 11.3763 9.11133 11.1289C8.87044 10.8815 8.75 10.5853 8.75 10.2402C8.75 9.89518 8.87044 9.60221 9.11133 9.36133C9.35221 9.12044 9.64844 9 10 9H18.75C19.1016 9 19.3978 9.12044 19.6387 9.36133C19.8796 9.60221 20 9.89518 20 10.2402C20 10.5853 19.8796 10.8815 19.6387 11.1289C19.3978 11.3763 19.1016 11.5 18.75 11.5ZM18.75 6.5H10C9.64844 6.5 9.35221 6.3763 9.11133 6.12891C8.87044 5.88151 8.75 5.58529 8.75 5.24023C8.75 4.89518 8.87044 4.60221 9.11133 4.36133C9.35221 4.12044 9.64844 4 10 4H18.75C19.1016 4 19.3978 4.12044 19.6387 4.36133C19.8796 4.60221 20 4.89518 20 5.24023C20 5.58529 19.8796 5.88151 19.6387 6.12891C19.3978 6.3763 19.1016 6.5 18.75 6.5ZM6.25 24H1.25C0.898438 24 0.602214 23.8796 0.361328 23.6387C0.120443 23.3978 0 23.1016 0 22.75V17.75C0 17.3984 0.120443 17.1022 0.361328 16.8613C0.602214 16.6204 0.898438 16.5 1.25 16.5H6.25C6.58854 16.5 6.88151 16.6204 7.12891 16.8613C7.3763 17.1022 7.5 17.3984 7.5 17.75V22.75C7.5 23.1016 7.3763 23.3978 7.12891 23.6387C6.88151 23.8796 6.58854 24 6.25 24ZM6.25 11.5H1.25C0.898438 11.5 0.602214 11.3763 0.361328 11.1289C0.120443 10.8815 0 10.5885 0 10.25V5.25C0 4.89844 0.120443 4.60221 0.361328 4.36133C0.602214 4.12044 0.898438 4 1.25 4H6.25C6.58854 4 6.88151 4.12044 7.12891 4.36133C7.3763 4.60221 7.5 4.89844 7.5 5.25V10.25C7.5 10.5885 7.3763 10.8815 7.12891 11.1289C6.88151 11.3763 6.58854 11.5 6.25 11.5ZM10 21.5H18.75C19.1016 21.5 19.3978 21.6204 19.6387 21.8613C19.8796 22.1022 20 22.3984 20 22.75C20 23.1016 19.8763 23.3978 19.6289 23.6387C19.3815 23.8796 19.0885 24 18.75 24H10C9.64844 24 9.35221 23.8796 9.11133 23.6387C8.87044 23.3978 8.75 23.1016 8.75 22.75C8.75 22.3984 8.87044 22.1022 9.11133 21.8613C9.35221 21.6204 9.64844 21.5 10 21.5Z" fill="#7990A9"/>
</svg>
